<mxfile host="drawio-plugin" modified="2023-07-11T16:22:36.935Z" agent="5.0 (Macintosh; Intel Mac OS X 10_15_7) AppleWebKit/537.36 (KHTML, like Gecko) Chrome/104.0.5112.102 Safari/537.36" etag="pGmwgm0qkwlxvXqeKuwN" version="20.5.3" type="embed"><diagram name="Seite-1" id="Afa9OzGU9VT6Kw_RbNjM"><mxGraphModel dx="758" dy="385" grid="1" gridSize="10" guides="1" tooltips="1" connect="1" arrows="1" fold="1" page="1" pageScale="1" pageWidth="827" pageHeight="1169" math="0" shadow="0"><root><mxCell id="0"/><mxCell id="1" parent="0"/><mxCell id="21zig455Lk8CdIAZ-2xM-1" value="event: tab opened&lt;br&gt;&lt;br&gt;ChromeListeners.onUpdated" style="rounded=1;whiteSpace=wrap;html=1;" parent="1" vertex="1"><mxGeometry x="247.5" y="200" width="185" height="50" as="geometry"/></mxCell><mxCell id="3" value="&lt;b&gt;content db&lt;/b&gt;: adding title, url, content, meta info, expiresIn &amp;amp; favicon&lt;br&gt;with key atob(url)" style="shape=cylinder3;whiteSpace=wrap;html=1;boundedLbl=1;backgroundOutline=1;size=5;" parent="1" vertex="1"><mxGeometry x="250" y="320" width="180" height="80" as="geometry"/></mxCell><mxCell id="4" value="" style="endArrow=classic;html=1;rounded=0;entryX=0.5;entryY=0;entryDx=0;entryDy=0;entryPerimeter=0;" parent="1" source="21zig455Lk8CdIAZ-2xM-1" target="3" edge="1"><mxGeometry width="50" height="50" relative="1" as="geometry"><mxPoint x="250" y="360" as="sourcePoint"/><mxPoint x="300" y="310" as="targetPoint"/></mxGeometry></mxCell><mxCell id="6" style="edgeStyle=orthogonalEdgeStyle;rounded=0;orthogonalLoop=1;jettySize=auto;html=1;exitX=0;exitY=0.5;exitDx=0;exitDy=0;entryX=1;entryY=0.5;entryDx=0;entryDy=0;entryPerimeter=0;" edge="1" parent="1" source="5" target="3"><mxGeometry relative="1" as="geometry"/></mxCell><mxCell id="5" value="expires in: typically 1hour&lt;br&gt;configured in&amp;nbsp;&lt;br&gt;&lt;div style=&quot;background-color: rgb(255, 255, 255); color: rgb(8, 8, 8); font-family: &amp;quot;JetBrains Mono&amp;quot;, monospace; font-size: 9.8pt;&quot;&gt;&lt;span style=&quot;color:#830091;&quot;&gt;EXPIRE_DATA_PERIOD_IN_MINUTES&lt;/span&gt;&lt;/div&gt;" style="text;html=1;strokeColor=none;fillColor=none;align=center;verticalAlign=middle;whiteSpace=wrap;rounded=0;" vertex="1" parent="1"><mxGeometry x="490" y="280" width="250" height="80" as="geometry"/></mxCell></root></mxGraphModel></diagram></mxfile>